<svg width="36" height="27" viewBox="0 0 36 27" fill="none" xmlns="http://www.w3.org/2000/svg">
<path d="M18 25.3125C26.6985 25.3125 33.75 20.0239 33.75 13.5C33.75 6.97614 26.6985 1.6875 18 1.6875C9.30152 1.6875 2.25 6.97614 2.25 13.5C2.25 20.0239 9.30152 25.3125 18 25.3125Z" fill="url(#paint0_linear_74_778)"/>
<path d="M20.7527 7.30184C21.0931 6.8562 20.8896 6.287 20.2982 6.03051C19.7067 5.77402 18.9513 5.92736 18.6109 6.373L18.0172 7.15029L17.4234 6.373C17.083 5.92736 16.3276 5.77402 15.7362 6.03051C15.1448 6.287 14.9412 6.8562 15.2817 7.30184L16.5915 9.01665L12.4483 14.4407H9.1106C8.4282 14.4407 7.875 14.8575 7.875 15.3717C7.875 15.8859 8.4282 16.3027 9.1106 16.3027H20.7365C20.8384 16.1009 20.9457 15.7546 20.8315 15.4363C20.6599 14.9579 20.025 14.4407 18.961 14.4407H15.2997L20.7527 7.30184Z" fill="white"/>
<path d="M13.091 17.3324C12.8802 17.156 12.4079 16.8741 11.9937 16.7814C11.3622 16.6399 10.8835 16.7286 10.6419 16.8059L9.72155 18.0109C9.38115 18.4565 9.58465 19.0257 10.1761 19.2822C10.7675 19.5387 11.5229 19.3854 11.8633 18.9397L13.091 17.3324Z" fill="white"/>
<path d="M25.0082 16.3025H26.8895C27.5719 16.3025 28.1251 15.8857 28.1251 15.3715C28.1251 14.8573 27.5719 14.4405 26.8895 14.4405H23.586L19.8647 9.56885C19.5883 9.76679 19.0583 10.2725 18.9782 10.8458C18.8753 11.5828 19.0297 12.2035 19.493 12.8112C21.0508 14.8545 22.6111 16.8969 24.1711 18.9393C24.5116 19.385 25.2669 19.5383 25.8584 19.2818C26.4498 19.0253 26.6533 18.4561 26.3129 18.0105L25.0082 16.3025Z" fill="white"/>
<defs>
<linearGradient id="paint0_linear_74_778" x1="18" y1="1.6875" x2="18" y2="25.3125" gradientUnits="userSpaceOnUse">
<stop stop-color="#2AC9FA"/>
<stop offset="1" stop-color="#1F65EB"/>
</linearGradient>
</defs>
</svg>
