<svg width="84" height="76" viewBox="0 0 84 76" fill="none" xmlns="http://www.w3.org/2000/svg">
<g clip-path="url(#clip0_128_1828)">
<path d="M45.5875 53.8332H12.9745L33.845 34.9503L42 40.6282L50.155 34.9472L55.7655 40.0233C56.8863 39.4862 58.0635 39.0513 59.2795 38.725L52.9515 32.9997L73.5 18.6832V39.9632C74.7439 40.5228 75.9174 41.2023 77 41.9898V17.4165C76.9963 16.1578 76.442 14.9515 75.4582 14.0614C74.4745 13.1714 73.1413 12.6698 71.75 12.6665H12.25C10.8587 12.6698 9.52554 13.1714 8.54177 14.0614C7.558 14.9515 7.0037 16.1578 7 17.4165V52.2498C7 53.5096 7.55312 54.7178 8.53769 55.6086C9.52226 56.4994 10.8576 56.9998 12.25 56.9998H45.5875C45.535 56.4773 45.5 55.9517 45.5 55.4165C45.5 54.8813 45.535 54.3557 45.5875 53.8332ZM10.5 51.5943V18.6863L31.0485 32.9997L10.5 51.5943ZM71.75 15.8332C71.7815 15.8332 71.806 15.849 71.8375 15.849L42 36.6382L12.1625 15.849C12.194 15.849 12.2185 15.8332 12.25 15.8332H71.75ZM64.75 41.1665C60.5743 41.1707 56.5709 42.6734 53.6182 45.3449C50.6655 48.0163 49.0046 51.6385 49 55.4165C49.025 55.9469 49.0834 56.4755 49.175 56.9998C49.5966 60.474 51.4177 63.6861 54.2906 66.0225C57.1636 68.359 60.887 69.6562 64.75 69.6665H66.5V66.4998H64.75C61.8118 66.4924 58.9747 65.5284 56.7575 63.784C54.5403 62.0396 53.0911 59.6314 52.675 56.9998C52.5743 56.4766 52.5158 55.9474 52.5 55.4165C52.4984 53.2343 53.2092 51.1004 54.5432 49.2824C55.8773 47.4644 57.7751 46.0434 59.9985 45.1977C62.2219 44.3521 64.6718 44.1194 67.0408 44.529C69.4098 44.9386 71.5924 45.9721 73.3145 47.4998H70V49.1243C68.4941 48.0769 66.6495 47.5061 64.75 47.4998C63.3158 47.4962 61.9025 47.8115 60.6346 48.4182C59.3668 49.0248 58.2831 49.9041 57.4792 50.9787C56.6752 52.0533 56.1755 53.2903 56.0241 54.5807C55.8726 55.8711 56.0741 57.1754 56.6108 58.3787C57.1475 59.5821 58.0029 60.6477 59.1017 61.4817C60.2005 62.3157 61.5091 62.8925 62.9122 63.1613C64.3153 63.4302 65.77 63.3829 67.1481 63.0236C68.5263 62.6642 69.7857 62.0039 70.8155 61.1007C71.4184 61.9747 72.3196 62.6473 73.3827 63.0166C74.4458 63.3858 75.6129 63.4317 76.7074 63.1472C77.8018 62.8627 78.7641 62.2633 79.4484 61.4398C80.1327 60.6163 80.5019 59.6135 80.5 58.5832V55.4165C80.45 51.6512 78.7746 48.0529 75.8317 45.3902C72.8888 42.7275 68.9116 41.2117 64.75 41.1665ZM64.75 60.1665C63.6678 60.1634 62.6132 59.8573 61.7309 59.2904C60.8486 58.7234 60.1818 57.9233 59.822 56.9998C59.6147 56.4928 59.5058 55.9571 59.5 55.4165C59.5 54.1567 60.0531 52.9485 61.0377 52.0578C62.0223 51.167 63.3576 50.6665 64.75 50.6665C66.1424 50.6665 67.4777 51.167 68.4623 52.0578C69.4469 52.9485 70 54.1567 70 55.4165C69.9942 55.9571 69.8853 56.4928 69.678 56.9998C69.3182 57.9233 68.6514 58.7234 67.7691 59.2904C66.8868 59.8573 65.8322 60.1634 64.75 60.1665ZM77 58.5832C77 59.0031 76.8156 59.4058 76.4874 59.7028C76.1592 59.9997 75.7141 60.1665 75.25 60.1665C74.7859 60.1665 74.3408 59.9997 74.0126 59.7028C73.6844 59.4058 73.5 59.0031 73.5 58.5832V47.6677C75.699 49.7624 76.9481 52.5279 77 55.4165V58.5832Z" fill="#204EC4"/>
</g>
<defs>
<clipPath id="clip0_128_1828">
<rect width="84" height="76" fill="white"/>
</clipPath>
</defs>
</svg>
