<svg width="8" height="8" viewBox="0 0 8 8" fill="none" xmlns="http://www.w3.org/2000/svg">
<g clip-path="url(#clip0_194_901)">
<path fill-rule="evenodd" clip-rule="evenodd" d="M4.27306 8H0.441539C0.197612 8 0 7.80227 0 7.55843V0.441536C0 0.197642 0.197643 0 0.441539 0H7.55849C7.80233 0 8 0.197642 8 0.441536V7.55843C8 7.8023 7.80229 8 7.55849 8H5.51989V4.90196H6.55975L6.71546 3.6946H5.51989V2.92377C5.51989 2.57422 5.61695 2.336 6.11822 2.336L6.75755 2.33572V1.25585C6.64698 1.24114 6.26746 1.20826 5.82593 1.20826C4.90414 1.20826 4.27306 1.77092 4.27306 2.8042V3.6946H3.23052V4.90196H4.27306V8Z" fill="#4460A0"/>
</g>
<defs>
<clipPath id="clip0_194_901">
<rect width="8" height="8" fill="white"/>
</clipPath>
</defs>
</svg>
