<svg width="48" height="47" viewBox="0 0 48 47" fill="none" xmlns="http://www.w3.org/2000/svg">
<g clip-path="url(#clip0_220_47)">
<path d="M39.6187 16.6177L39.6024 15.9249V2.82377L36.0225 6.44582C33.0928 2.81751 28.6355 0.5 23.6432 0.5C18.4475 0.5 13.8319 3.00891 10.9125 6.89274L16.7803 12.8917C17.3572 11.8172 18.174 10.8953 19.1591 10.1934C20.1836 9.38458 21.635 8.7233 23.643 8.7233C23.8856 8.7233 24.0727 8.75176 24.2104 8.80601C26.6981 9.00462 28.8547 10.3938 30.1241 12.4098L25.9687 16.6139L39.6165 16.6165" fill="#1C3AA9"/>
<path d="M23.55 0.500488L22.865 0.518889H9.9159L13.4958 4.14075C9.90934 7.10133 7.61865 11.6123 7.61865 16.6633C7.61865 21.9179 10.0985 26.5893 13.9374 29.5414L19.8669 23.6048C18.8055 23.0236 17.8925 22.2002 17.2001 21.2001C16.4008 20.1636 15.747 18.6951 15.747 16.6637C15.747 16.4182 15.7751 16.2289 15.8287 16.0897C16.025 13.5728 17.3981 11.3909 19.3908 10.1067L23.5443 14.3088L23.547 0.501247" fill="#4285F4"/>
<path d="M7.61926 16.6631L7.63557 17.3559V30.4566L11.2155 26.8348C14.1454 30.4631 18.6026 32.7806 23.595 32.7806C28.7888 32.7806 33.4061 30.2717 36.324 26.3878L30.4562 20.3889C29.8817 21.4627 29.0679 22.3865 28.0793 23.0869C27.0548 23.8958 25.6033 24.5571 23.5954 24.5571C23.3528 24.5571 23.1656 24.5286 23.028 24.4744C20.5403 24.2758 18.3836 22.8866 17.1143 20.8705L21.2678 16.6684C16.0065 16.6874 10.0635 16.7016 7.62001 16.6657" fill="#ABABAB"/>
<path d="M10.3149 39.0403C9.92587 39.0403 9.57694 39.115 9.26831 39.2641C8.96201 39.4081 8.69318 39.6226 8.48325 39.8903C8.27194 40.1615 8.10919 40.491 7.99519 40.8778C7.88269 41.2614 7.82906 41.6907 7.82906 42.1678V43.5374C7.82906 44.016 7.88437 44.447 7.99519 44.8305C8.10919 45.2141 8.27025 45.5415 8.47819 45.8131C8.68612 46.0848 8.93756 46.2934 9.23306 46.4391C9.52856 46.5848 9.86044 46.658 10.2294 46.658C10.6086 46.658 10.9406 46.6021 11.2258 46.49C11.5146 46.3762 11.7559 46.2168 11.9505 46.0062C12.1451 45.7925 12.2944 45.5345 12.4005 45.2323C12.5079 44.9303 12.5715 44.5873 12.5917 44.2041H11.6588C11.6353 44.4995 11.595 44.7543 11.538 44.9629C11.481 45.1716 11.3974 45.3414 11.2864 45.4751C11.1789 45.6075 11.0381 45.706 10.8637 45.7705C10.6927 45.8315 10.4812 45.8621 10.23 45.8621C9.96187 45.8621 9.7335 45.8027 9.54562 45.6838C9.35775 45.5616 9.20512 45.3954 9.08775 45.1849C8.97375 44.9762 8.88975 44.7285 8.83612 44.4451C8.78588 44.1634 8.76056 43.8597 8.76056 43.5338V42.1541C8.76056 41.8045 8.79056 41.4871 8.85113 41.2018C8.91488 40.9167 9.0105 40.6741 9.138 40.4738C9.2655 40.2735 9.42675 40.1191 9.621 40.0105C9.81563 39.8967 10.047 39.8425 10.3155 39.8425C10.5405 39.8425 10.7331 39.8766 10.8941 39.9443C11.0554 40.0088 11.1892 40.1107 11.2967 40.2479C11.4041 40.3837 11.4842 40.5567 11.5433 40.767C11.6023 40.9774 11.637 41.2286 11.6589 41.5205H12.5899C12.5711 41.1222 12.5111 40.7655 12.4037 40.4582C12.2963 40.1509 12.1468 39.8897 11.9537 39.6793C11.7606 39.469 11.5294 39.3094 11.2543 39.2007C10.9824 39.092 10.6689 39.0376 10.3131 39.0376L10.3149 39.0403ZM33.0399 39.0403C32.6509 39.0403 32.3019 39.115 31.9933 39.2641C31.687 39.4081 31.4182 39.6226 31.2083 39.8903C30.9969 40.1615 30.8342 40.491 30.7202 40.8778C30.6077 41.2614 30.5541 41.6907 30.5541 42.1678V43.5374C30.5541 44.016 30.6094 44.447 30.7202 44.8305C30.8342 45.2141 30.9953 45.5415 31.2032 45.8131C31.4111 46.0848 31.6626 46.2934 31.9581 46.4391C32.2536 46.5848 32.5854 46.658 32.9544 46.658C33.3336 46.658 33.6656 46.6021 33.9508 46.49C34.2396 46.3762 34.4809 46.2168 34.6755 46.0062C34.8701 45.7925 35.0194 45.5345 35.1255 45.2323C35.2329 44.9303 35.2965 44.5873 35.3167 44.2041H34.3858C34.3624 44.4995 34.3221 44.7543 34.2651 44.9629C34.2081 45.1716 34.1244 45.3414 34.0134 45.4751C33.906 45.6075 33.7652 45.706 33.5908 45.7705C33.4198 45.8315 33.2083 45.8621 32.9571 45.8621C32.6889 45.8621 32.4606 45.8027 32.2727 45.6838C32.0848 45.5616 31.9322 45.3954 31.8148 45.1849C31.7008 44.9762 31.6168 44.7285 31.5632 44.4451C31.5129 44.1634 31.4876 43.8597 31.4876 43.5338V42.1541C31.4876 41.8045 31.5176 41.4871 31.5782 41.2018C31.6419 40.9167 31.7376 40.6741 31.8651 40.4738C31.9926 40.2735 32.1538 40.1191 32.3481 40.0105C32.5427 39.8967 32.7741 39.8425 33.0426 39.8425C33.2676 39.8425 33.4601 39.8766 33.6212 39.9443C33.7824 40.0088 33.9163 40.1107 34.0238 40.2479C34.1312 40.3837 34.2113 40.5567 34.2703 40.767C34.3294 40.9774 34.3641 41.2286 34.386 41.5205H35.3169C35.2982 41.1222 35.2382 40.7655 35.1307 40.4582C35.0233 40.1509 34.8739 39.8897 34.6808 39.6793C34.4876 39.469 34.2564 39.3094 33.9814 39.2007C33.7095 39.092 33.396 39.0376 33.0401 39.0376L33.0399 39.0403ZM15.6212 39.1421L13.2591 46.5545H14.205L14.7737 44.62H17.2494L17.8281 46.5545H18.774L16.4089 39.1421H15.6212ZM19.7724 39.1421V46.5545H20.6912V43.6527H22.1049C22.4574 43.6527 22.7693 43.6034 23.0409 43.5051C23.3128 43.4032 23.5408 43.2574 23.7253 43.0673C23.9132 42.8772 24.054 42.6431 24.1479 42.3647C24.2454 42.083 24.2938 41.7639 24.2938 41.4077C24.2938 41.0783 24.2451 40.7763 24.1479 40.5015C24.0542 40.2232 23.9149 39.984 23.7304 39.7837C23.5459 39.5801 23.3179 39.4223 23.0409 39.3102C22.7691 39.1964 22.4572 39.1421 22.1049 39.1421H19.7724ZM25.0007 39.1421V39.9464H26.9229V46.5545H27.8417V39.9464H29.7692V39.1421H25.0007ZM36.5593 39.1421V46.5545H37.4781V43.1282H40.425V46.5545H41.3509V39.1421H40.425V42.329H37.4762V39.1421H36.5593ZM44.8468 39.1421L42.4867 46.5545H43.4327L44.0014 44.62H46.4771L47.0558 46.5545H48L45.6349 39.1421H44.8468ZM20.6931 39.9464H22.1068C22.3318 39.9464 22.5227 39.9872 22.6806 40.0686C22.8349 40.1445 22.9693 40.2562 23.073 40.3945C23.1771 40.5303 23.2524 40.6881 23.2995 40.868C23.3498 41.0444 23.3751 41.2278 23.3751 41.4181C23.3751 41.6268 23.3499 41.8221 23.2995 41.9986C23.2526 42.1716 23.1771 42.321 23.073 42.4538C22.9723 42.5794 22.8414 42.6777 22.6806 42.7492C22.5231 42.8205 22.3318 42.8562 22.1068 42.8562H20.6931V39.9464ZM16.0134 40.4453L17.0147 43.8155H15.015L16.0134 40.4453ZM45.2391 40.4453L46.2403 43.8155H44.2406L45.2391 40.4453ZM1.89375 40.9442C1.66219 40.9442 1.4625 41.0036 1.29488 41.1225C1.13044 41.2413 0.994875 41.4025 0.882375 41.6063L0.867375 41.0463H0V46.5547H0.890625V42.6141C0.974437 42.3798 1.0935 42.1968 1.24781 42.0593C1.40531 41.9234 1.605 41.8557 1.84669 41.8557L2.05294 41.866C2.11885 41.8701 2.18443 41.8786 2.24925 41.8914L2.24419 41.0157C2.23069 41.0089 2.20894 41.0021 2.17856 40.9954C2.14911 40.9845 2.11882 40.976 2.088 40.97C2.05425 40.9632 2.01919 40.9581 1.98225 40.9548C1.9485 40.948 1.9185 40.9446 1.89169 40.9446L1.89375 40.9442ZM4.88775 40.9442C4.63159 40.9439 4.37749 40.9905 4.13775 41.0818C3.894 41.1734 3.68156 41.3246 3.49369 41.537C3.30919 41.7457 3.15994 42.0156 3.04369 42.3516C2.92969 42.6841 2.87269 43.0914 2.87269 43.5785V44.1996C2.87269 44.6203 2.92144 44.9853 3.01856 45.2941C3.11569 45.603 3.25481 45.8594 3.43613 46.063C3.62063 46.2633 3.84375 46.4126 4.1055 46.511C4.36725 46.6095 4.6605 46.6586 4.98619 46.6586C5.22094 46.6586 5.43056 46.6349 5.61525 46.5873C5.80312 46.5399 5.96925 46.4786 6.11344 46.404C6.25781 46.3259 6.38156 46.2377 6.48581 46.1392C6.59006 46.0408 6.67894 45.9389 6.75244 45.8357L6.28931 45.2655C6.21544 45.3571 6.13669 45.4419 6.05306 45.5201C5.96925 45.5948 5.87681 45.661 5.77631 45.7187C5.67091 45.7739 5.55954 45.8165 5.44444 45.8458C5.32387 45.878 5.18756 45.8917 5.03681 45.8917C4.62431 45.8917 4.30556 45.7576 4.08581 45.4895C3.86775 45.2215 3.75881 44.792 3.75881 44.1996V44.0725H6.79631V43.5482C6.79631 43.1274 6.76106 42.7556 6.69056 42.4331C6.62006 42.1107 6.50775 41.8394 6.35344 41.6186C6.2033 41.4014 5.9982 41.2291 5.75962 41.1197C5.51813 41.0044 5.22619 40.9467 4.884 40.9467L4.88775 40.9442ZM4.88775 41.7182C5.08238 41.7182 5.24344 41.7538 5.37075 41.8252C5.49687 41.8951 5.60137 41.9991 5.67263 42.1255C5.74988 42.2545 5.80519 42.4089 5.83875 42.5887C5.87569 42.7651 5.89913 42.9605 5.90925 43.1741V43.2963H3.76388C3.77737 42.9874 3.81413 42.731 3.87637 42.5274C3.93862 42.3239 4.01569 42.1626 4.11263 42.0437C4.21331 41.9215 4.329 41.835 4.45988 41.7891C4.59075 41.7432 4.73325 41.7178 4.88737 41.7178L4.88775 41.7182Z" fill="#A6A6A6"/>
</g>
<defs>
<clipPath id="clip0_220_47">
<rect width="48" height="46.2857" fill="white" transform="translate(0 0.5)"/>
</clipPath>
</defs>
</svg>
