<svg width="30" height="27" viewBox="0 0 30 27" fill="none" xmlns="http://www.w3.org/2000/svg">
<g clip-path="url(#clip0_121_948)">
<path d="M2.5 13.7294C2.5 11.1549 2.5 9.86769 3.149 8.80058C3.798 7.73349 4.98369 7.0712 7.35504 5.74665L9.85504 4.35023C12.3617 2.95008 13.6151 2.25 15 2.25C16.3849 2.25 17.6382 2.95008 20.145 4.35023L22.645 5.74663C25.0164 7.0712 26.202 7.73349 26.851 8.80058C27.5 9.86769 27.5 11.1549 27.5 13.7294V15.4406C27.5 19.829 27.5 22.0233 26.0355 23.3866C24.5711 24.75 22.214 24.75 17.5 24.75H12.5C7.78595 24.75 5.42894 24.75 3.96446 23.3866C2.5 22.0233 2.5 19.829 2.5 15.4406V13.7294Z" stroke="#0E2F84" stroke-width="3.75"/>
<path d="M18.75 20.25H11.25" stroke="#0E2F84" stroke-width="3.75" stroke-linecap="round"/>
</g>
<defs>
<clipPath id="clip0_121_948">
<rect width="30" height="27" fill="white"/>
</clipPath>
</defs>
</svg>
