<svg width="25" height="25" viewBox="0 0 25 25" fill="none" xmlns="http://www.w3.org/2000/svg">
<path d="M20.0194 5.38109L19.2835 4.64515C19.0755 4.43716 18.6915 4.46917 18.4515 4.75711L15.8913 7.30108C14.7392 6.80514 13.4754 6.56514 12.1473 6.56514C8.19519 6.58107 4.77141 8.88504 3.12329 12.1973C3.02726 12.4052 3.02726 12.6612 3.12329 12.8372C3.89122 14.4052 5.04329 15.7012 6.4833 16.6772L4.3873 18.8051C4.1473 19.0451 4.11529 19.4291 4.27534 19.6371L5.01128 20.3731C5.21928 20.581 5.60326 20.549 5.84326 20.2611L19.8912 6.21321C20.1952 5.97334 20.2272 5.58938 20.0192 5.38137L20.0194 5.38109ZM12.9953 10.213C12.7233 10.149 12.4353 10.069 12.1633 10.069C10.8033 10.069 9.71538 11.157 9.71538 12.5169C9.71538 12.7889 9.7794 13.0769 9.85935 13.3489L8.78724 14.4049C8.46728 13.845 8.2913 13.2209 8.2913 12.517C8.2913 10.389 10.0033 8.67697 12.1313 8.67697C12.8354 8.67697 13.4593 8.85295 14.0193 9.17291L12.9953 10.213Z" fill="#666666" fill-opacity="0.8"/>
<path d="M21.1714 12.1974C20.6114 11.0774 19.8753 10.0695 18.9634 9.25342L15.9874 12.1974V12.5174C15.9874 14.6454 14.2754 16.3574 12.1474 16.3574H11.8274L9.93945 18.2454C10.6435 18.3893 11.3795 18.4854 12.0995 18.4854C16.0516 18.4854 19.4754 16.1814 21.1235 12.8532C21.2675 12.6292 21.2675 12.4053 21.1714 12.1973L21.1714 12.1974Z" fill="#666666" fill-opacity="0.8"/>
</svg>
