<svg width="9" height="8" viewBox="0 0 9 8" fill="none" xmlns="http://www.w3.org/2000/svg">
<g clip-path="url(#clip0_194_4768)">
<rect width="9" height="8" fill="white"/>
<path d="M6.75 0.5H2.25C1.31802 0.5 0.5625 1.17157 0.5625 2V6C0.5625 6.82843 1.31802 7.5 2.25 7.5H6.75C7.68198 7.5 8.4375 6.82843 8.4375 6V2C8.4375 1.17157 7.68198 0.5 6.75 0.5Z" fill="url(#paint0_radial_194_4768)"/>
<path d="M6.75 0.5H2.25C1.31802 0.5 0.5625 1.17157 0.5625 2V6C0.5625 6.82843 1.31802 7.5 2.25 7.5H6.75C7.68198 7.5 8.4375 6.82843 8.4375 6V2C8.4375 1.17157 7.68198 0.5 6.75 0.5Z" fill="url(#paint1_radial_194_4768)"/>
<path d="M6.75 0.5H2.25C1.31802 0.5 0.5625 1.17157 0.5625 2V6C0.5625 6.82843 1.31802 7.5 2.25 7.5H6.75C7.68198 7.5 8.4375 6.82843 8.4375 6V2C8.4375 1.17157 7.68198 0.5 6.75 0.5Z" fill="url(#paint2_radial_194_4768)"/>
<path d="M6.46875 2.625C6.46875 2.8321 6.27986 3 6.04688 3C5.81389 3 5.625 2.8321 5.625 2.625C5.625 2.41789 5.81389 2.25 6.04688 2.25C6.27986 2.25 6.46875 2.41789 6.46875 2.625Z" fill="white"/>
<path fill-rule="evenodd" clip-rule="evenodd" d="M4.5 5.25C5.27664 5.25 5.90625 4.69035 5.90625 4C5.90625 3.30965 5.27664 2.75 4.5 2.75C3.72336 2.75 3.09375 3.30965 3.09375 4C3.09375 4.69035 3.72336 5.25 4.5 5.25ZM4.5 4.75C4.966 4.75 5.34375 4.41422 5.34375 4C5.34375 3.58578 4.966 3.25 4.5 3.25C4.034 3.25 3.65625 3.58578 3.65625 4C3.65625 4.41422 4.034 4.75 4.5 4.75Z" fill="white"/>
<path fill-rule="evenodd" clip-rule="evenodd" d="M1.6875 3.9C1.6875 3.05993 1.6875 2.63988 1.87143 2.31902C2.03321 2.03677 2.29137 1.8073 2.60889 1.66349C2.96986 1.5 3.44242 1.5 4.3875 1.5H4.6125C5.55758 1.5 6.03014 1.5 6.3911 1.66349C6.70863 1.8073 6.96679 2.03677 7.12856 2.31902C7.3125 2.63988 7.3125 3.05993 7.3125 3.9V4.1C7.3125 4.94007 7.3125 5.36013 7.12856 5.68097C6.96679 5.96322 6.70863 6.1927 6.3911 6.3365C6.03014 6.5 5.55758 6.5 4.6125 6.5H4.3875C3.44242 6.5 2.96986 6.5 2.60889 6.3365C2.29137 6.1927 2.03321 5.96322 1.87143 5.68097C1.6875 5.36013 1.6875 4.94007 1.6875 4.1V3.9ZM4.3875 2H4.6125C5.09434 2 5.42185 2.00039 5.67503 2.01877C5.92166 2.03668 6.04777 2.06915 6.13575 2.10899C6.34742 2.20487 6.51952 2.35785 6.62737 2.546C6.67221 2.6242 6.70874 2.7363 6.72888 2.95552C6.74955 3.18057 6.75 3.4717 6.75 3.9V4.1C6.75 4.5283 6.74955 4.81943 6.72888 5.04448C6.70874 5.2637 6.67221 5.3758 6.62737 5.454C6.51952 5.64215 6.34742 5.79513 6.13575 5.891C6.04777 5.93085 5.92166 5.96333 5.67503 5.98123C5.42185 5.9996 5.09434 6 4.6125 6H4.3875C3.90566 6 3.57815 5.9996 3.32497 5.98123C3.07834 5.96333 2.95222 5.93085 2.86425 5.891C2.65258 5.79513 2.48048 5.64215 2.37262 5.454C2.32779 5.3758 2.29127 5.2637 2.27112 5.04448C2.25044 4.81943 2.25 4.5283 2.25 4.1V3.9C2.25 3.4717 2.25044 3.18057 2.27112 2.95552C2.29127 2.7363 2.32779 2.6242 2.37262 2.546C2.48048 2.35785 2.65258 2.20487 2.86425 2.10899C2.95222 2.06915 3.07834 2.03668 3.32497 2.01877C3.57815 2.00039 3.90566 2 4.3875 2Z" fill="white"/>
</g>
<defs>
<radialGradient id="paint0_radial_194_4768" cx="0" cy="0" r="1" gradientUnits="userSpaceOnUse" gradientTransform="translate(3.375 5.75) rotate(-52.1604) scale(6.64783 6.88812)">
<stop stop-color="#B13589"/>
<stop offset="0.79309" stop-color="#C62F94"/>
<stop offset="1" stop-color="#8A3AC8"/>
</radialGradient>
<radialGradient id="paint1_radial_194_4768" cx="0" cy="0" r="1" gradientUnits="userSpaceOnUse" gradientTransform="translate(3.09375 7.75) rotate(-62.4651) scale(5.77965 6.21047)">
<stop stop-color="#E0E8B7"/>
<stop offset="0.444662" stop-color="#FB8A2E"/>
<stop offset="0.71474" stop-color="#E2425C"/>
<stop offset="1" stop-color="#E2425C" stop-opacity="0"/>
</radialGradient>
<radialGradient id="paint2_radial_194_4768" cx="0" cy="0" r="1" gradientUnits="userSpaceOnUse" gradientTransform="translate(0.140625 0.75) rotate(-7.23692) scale(10.9151 2.08397)">
<stop offset="0.156701" stop-color="#406ADC"/>
<stop offset="0.467799" stop-color="#6A45BE"/>
<stop offset="1" stop-color="#6A45BE" stop-opacity="0"/>
</radialGradient>
<clipPath id="clip0_194_4768">
<rect width="9" height="8" fill="white"/>
</clipPath>
</defs>
</svg>
