<svg width="13" height="14" viewBox="0 0 13 14" fill="none" xmlns="http://www.w3.org/2000/svg">
<path d="M10.875 3.5625C10.875 4.08027 10.4553 4.5 9.9375 4.5C9.41973 4.5 9 4.08027 9 3.5625C9 3.04473 9.41973 2.625 9.9375 2.625C10.4553 2.625 10.875 3.04473 10.875 3.5625Z" fill="white"/>
<path fill-rule="evenodd" clip-rule="evenodd" d="M6.5 10.125C8.22589 10.125 9.625 8.72589 9.625 7C9.625 5.27411 8.22589 3.875 6.5 3.875C4.77411 3.875 3.375 5.27411 3.375 7C3.375 8.72589 4.77411 10.125 6.5 10.125ZM6.5 8.875C7.53553 8.875 8.375 8.03553 8.375 7C8.375 5.96447 7.53553 5.125 6.5 5.125C5.46447 5.125 4.625 5.96447 4.625 7C4.625 8.03553 5.46447 8.875 6.5 8.875Z" fill="white"/>
<path fill-rule="evenodd" clip-rule="evenodd" d="M0.25 6.75C0.25 4.6498 0.25 3.5997 0.658726 2.79754C1.01825 2.09193 1.59193 1.51825 2.29754 1.15873C3.0997 0.75 4.1498 0.75 6.25 0.75H6.75C8.8502 0.75 9.9003 0.75 10.7025 1.15873C11.4081 1.51825 11.9817 2.09193 12.3413 2.79754C12.75 3.5997 12.75 4.6498 12.75 6.75V7.25C12.75 9.3502 12.75 10.4003 12.3413 11.2025C11.9817 11.9081 11.4081 12.4817 10.7025 12.8413C9.9003 13.25 8.8502 13.25 6.75 13.25H6.25C4.1498 13.25 3.0997 13.25 2.29754 12.8413C1.59193 12.4817 1.01825 11.9081 0.658726 11.2025C0.25 10.4003 0.25 9.3502 0.25 7.25V6.75ZM6.25 2H6.75C7.82072 2 8.54859 2.00097 9.1112 2.04694C9.65922 2.09171 9.93948 2.17287 10.135 2.27248C10.6054 2.51217 10.9878 2.89462 11.2275 3.36502C11.3271 3.56052 11.4083 3.84078 11.4531 4.3888C11.499 4.95141 11.5 5.67928 11.5 6.75V7.25C11.5 8.32072 11.499 9.04859 11.4531 9.6112C11.4083 10.1592 11.3271 10.4395 11.2275 10.635C10.9878 11.1054 10.6054 11.4878 10.135 11.7275C9.93948 11.8271 9.65922 11.9083 9.1112 11.9531C8.54859 11.999 7.82072 12 6.75 12H6.25C5.17928 12 4.45141 11.999 3.8888 11.9531C3.34078 11.9083 3.06052 11.8271 2.86502 11.7275C2.39462 11.4878 2.01217 11.1054 1.77248 10.635C1.67287 10.4395 1.59171 10.1592 1.54694 9.6112C1.50097 9.04859 1.5 8.32072 1.5 7.25V6.75C1.5 5.67928 1.50097 4.95141 1.54694 4.3888C1.59171 3.84078 1.67287 3.56052 1.77248 3.36502C2.01217 2.89462 2.39462 2.51217 2.86502 2.27248C3.06052 2.17287 3.34078 2.09171 3.8888 2.04694C4.45141 2.00097 5.17928 2 6.25 2Z" fill="white"/>
</svg>
