<svg width="10" height="9" viewBox="0 0 10 9" fill="none" xmlns="http://www.w3.org/2000/svg">
<g clip-path="url(#clip0_194_905)">
<path d="M5.00016 8.25C7.30135 8.25 9.16683 6.57107 9.16683 4.5C9.16683 2.42893 7.30135 0.75 5.00016 0.75C2.69898 0.75 0.833496 2.42893 0.833496 4.5C0.833496 6.57107 2.69898 8.25 5.00016 8.25Z" fill="#0077B5"/>
<path fill-rule="evenodd" clip-rule="evenodd" d="M3.91123 2.67823C3.91123 2.91169 3.71373 3.10061 3.40487 3.10061C3.10804 3.10061 2.91052 2.91169 2.91664 2.67823C2.91052 2.43343 3.10802 2.25 3.41079 2.25C3.71373 2.25 3.90531 2.43343 3.91123 2.67823ZM2.94148 6.15358V3.43429H3.88048V6.15339L2.94148 6.15358Z" fill="white"/>
<path fill-rule="evenodd" clip-rule="evenodd" d="M4.63323 4.30202C4.63323 3.96285 4.62082 3.67368 4.6084 3.43457H5.42402L5.46738 3.80709H5.48592C5.6095 3.63467 5.91836 3.37354 6.41882 3.37354C7.03654 3.37354 7.49994 3.74057 7.49994 4.54097V6.15384H6.56092V4.64687C6.56092 4.29635 6.42513 4.05739 6.08531 4.05739C5.82573 4.05739 5.67138 4.21864 5.60969 4.37422C5.58486 4.42993 5.57263 4.50763 5.57263 4.58567V6.15384H4.63361V4.30202H4.63323Z" fill="white"/>
</g>
<defs>
<clipPath id="clip0_194_905">
<rect width="10" height="9" fill="white"/>
</clipPath>
</defs>
</svg>
