<svg width="24" height="22" viewBox="0 0 24 22" fill="none" xmlns="http://www.w3.org/2000/svg">
<g clip-path="url(#clip0_116_1144)">
<path d="M10.4063 0.1408C7.19421 0.712859 4.64573 3.1261 4.11092 6.09159C3.79263 7.86328 4.16389 9.60898 5.12823 11.0878C5.23839 11.2565 5.32506 11.389 5.52152 11.6893L5.56685 11.7586C7.52408 14.75 8.37835 16.1371 9.27351 17.895L11.0935 21.4709C11.4525 22.1763 12.5467 22.1764 12.9059 21.4711L14.5449 18.2526C15.449 16.4755 16.3057 15.0681 18.2571 12.0411L18.3069 11.9639C18.5966 11.5145 18.7353 11.2991 18.9009 11.0408C19.6168 9.92606 19.9999 8.65428 19.9999 7.33295C20 2.73034 15.4393 -0.753922 10.4063 0.1408ZM17.1771 10.1111C17.0122 10.3683 16.874 10.5828 16.585 11.0311L16.5353 11.1083C14.5512 14.186 13.6729 15.629 12.7325 17.4773L12.0001 18.9156L11.086 17.1197C10.152 15.2854 9.27454 13.8607 7.2821 10.8156L7.23677 10.7463C7.0405 10.4463 6.95425 10.3144 6.84475 10.1467C6.12154 9.0377 5.84356 7.73038 6.08432 6.39001C6.48296 4.17951 8.398 2.36609 10.7875 1.94051C14.5808 1.26618 18 3.87829 18 7.33282C18 8.325 17.7134 9.27601 17.1771 10.1111Z" fill="white"/>
<path d="M11.9996 4.58301C10.3423 4.58301 8.99951 5.81388 8.99951 7.33309C8.99951 8.85229 10.3423 10.0832 11.9996 10.0832C13.6569 10.0832 14.9997 8.85229 14.9997 7.33309C14.9997 5.81388 13.6569 4.58301 11.9996 4.58301ZM11.9996 8.24977C11.4469 8.24977 10.9996 7.83975 10.9996 7.33309C10.9996 6.82643 11.4469 6.41641 11.9996 6.41641C12.5523 6.41641 12.9996 6.82643 12.9996 7.33309C12.9996 7.83975 12.5523 8.24977 11.9996 8.24977Z" fill="white"/>
</g>
<defs>
<clipPath id="clip0_116_1144">
<rect width="24" height="22" fill="white"/>
</clipPath>
</defs>
</svg>
