<svg width="60" height="60" viewBox="0 0 60 60" fill="none" xmlns="http://www.w3.org/2000/svg">
<path d="M15 25V20C15 19.1482 15.071 18.313 15.2074 17.5M45 25V20C45 11.7157 38.2842 5 30 5C25.52 5 21.4985 6.96407 18.75 10.0782" stroke="#113BA7" stroke-width="3.75" stroke-linecap="round"/>
<path d="M27.5 55H20C12.9289 55 9.3934 55 7.1967 52.8032C5 50.6065 5 47.071 5 40C5 32.929 5 29.3935 7.1967 27.1968C9.3934 25 12.9289 25 20 25H40C47.071 25 50.6065 25 52.8032 27.1968C55 29.3935 55 32.929 55 40C55 47.071 55 50.6065 52.8032 52.8032C50.6065 55 47.071 55 40 55H37.5" stroke="#113BA7" stroke-width="3.75" stroke-linecap="round"/>
</svg>
