<svg width="60" height="60" viewBox="0 0 60 60" fill="none" xmlns="http://www.w3.org/2000/svg">
<path d="M30.0592 23.0541C33.6184 23.0541 36.4885 20.1837 36.4885 16.6247C36.4885 13.0657 33.6411 10.1953 30.0592 10.1953C26.5 10.1953 23.6298 13.0657 23.6298 16.6247C23.6525 20.2069 26.5229 23.0541 30.0592 23.0541ZM15.1337 41.6766H3.58371C-0.159028 41.6766 -0.365747 35.959 3.65261 35.959H13.6639L19.4045 27.5088C21.1037 25.1897 23.0326 24.0874 25.765 24.0874H34.33C37.0625 24.0874 38.9912 25.0978 40.6904 27.5088L46.4539 35.959H56.5344C60.5757 35.959 60.3231 41.6766 56.6722 41.6766H45.1222C44.2037 41.6766 43.1014 41.355 42.4585 40.3678L38.0497 34.0763L38.0268 49.8284H22.2289L22.206 34.0763L17.7971 40.3678C17.1543 41.332 16.0522 41.6766 15.1337 41.6766Z" fill="white"/>
<g clip-path="url(#clip0_112_924)">
<path fill-rule="evenodd" clip-rule="evenodd" d="M4.69572 19.0798C3.39342 19.1275 2.26465 19.3862 1.3532 20.1236C0.438556 20.865 0.124113 21.7857 0.0652067 22.8328C0.0285891 23.4864 -0.185531 28.4239 0.435373 29.7188C0.854085 30.5923 1.67875 31.264 2.76374 31.6053C3.27002 31.7653 3.84795 31.8736 4.69572 31.9052C11.7844 32.1659 14.4121 32.024 15.5201 29.7188C15.7168 29.3084 15.8521 28.8393 15.8895 28.1522C16.2135 22.3779 15.837 21.1262 14.6015 20.1236C13.6216 19.3294 12.469 18.7888 4.69572 19.0798ZM4.76098 30.7439C3.98485 30.7155 3.56376 30.6104 3.28276 30.5221C2.57589 30.2988 2.04493 29.8692 1.7719 29.2982C1.29905 28.3143 1.45588 23.6413 1.49807 22.8852C1.53946 22.1445 1.72414 21.4676 2.36733 20.945C3.16336 20.2999 4.19182 19.9837 11.1945 20.2404C12.1083 20.274 12.9434 20.4237 13.5882 20.945C14.3842 21.5902 14.779 22.4323 14.4574 28.1001C14.4224 28.7292 14.2927 29.0705 14.1836 29.2982C13.4632 30.7983 11.8059 31.0065 4.76098 30.7439ZM11.2717 22.0483C11.2717 22.4754 11.6992 22.8227 12.227 22.8227C12.7547 22.8227 13.183 22.4754 13.183 22.0483C13.183 21.6212 12.7547 21.2742 12.227 21.2742C11.6992 21.2742 11.2717 21.6212 11.2717 22.0483ZM3.89013 25.4922C3.89013 27.3219 5.72021 28.8053 7.97776 28.8053C10.2353 28.8053 12.0654 27.3219 12.0654 25.4922C12.0654 23.6625 10.2353 22.18 7.97776 22.18C5.72021 22.18 3.89013 23.6625 3.89013 25.4922ZM5.32458 25.4922C5.32458 24.3051 6.51226 23.3419 7.97776 23.3419C9.44325 23.3419 10.6309 24.3051 10.6309 25.4922C10.6309 26.6799 9.44325 27.6434 7.97776 27.6434C6.51226 27.6434 5.32458 26.6799 5.32458 25.4922Z" fill="white"/>
</g>
<path fill-rule="evenodd" clip-rule="evenodd" d="M52.1392 32V25.25H54.5983L55 22.25H52.1392V20.7888C52.1392 20.0163 52.1628 19.25 53.4582 19.25H54.7702V17.1051C54.7702 17.0729 53.6432 17 52.5031 17C50.122 17 48.6311 18.2429 48.6311 20.5251V22.25H46V25.25H48.6311V32H52.1392Z" fill="white"/>
<defs>
<clipPath id="clip0_112_924">
<rect width="16" height="13" fill="white" transform="translate(0 19)"/>
</clipPath>
</defs>
</svg>
