<svg width="59" height="56" viewBox="0 0 59 56" fill="none" xmlns="http://www.w3.org/2000/svg">
<path fill-rule="evenodd" clip-rule="evenodd" d="M59 48.2493C59 49.6511 57.7985 50.7892 56.3182 50.7892H53.6364V53.4608C53.6364 54.8625 52.4349 56 50.9545 56C49.4742 56 48.2727 54.8625 48.2727 53.4608V50.7892H45.5909C44.1105 50.7892 42.9091 49.6511 42.9091 48.2493C42.9091 46.8475 44.1105 45.71 45.5909 45.71H48.2727V43.3026C48.2727 41.9008 49.4742 40.7633 50.9545 40.7633C52.4349 40.7633 53.6364 41.9008 53.6364 43.3026V45.71H56.3182C57.7985 45.71 59 46.8475 59 48.2493ZM28.4889 25.2246C27.9096 25.1789 27.3277 25.1407 26.735 25.1407C26.1906 25.1407 25.657 25.1784 25.1233 25.2165C21.5002 24.4776 18.7727 21.4254 18.7727 17.7762C18.7727 13.576 22.3825 10.1579 26.8182 10.1579C31.2539 10.1579 34.8636 13.576 34.8636 17.7762C34.8636 21.4331 32.1255 24.4932 28.4889 25.2246ZM5.41192 43.1708C5.37438 43.1835 5.40118 43.173 5.36364 43.1857V7.60312C5.36364 6.20133 6.56509 5.07879 8.04545 5.07879H26.4078C19.1937 5.28703 13.4091 10.8865 13.4091 17.7685C13.4091 21.4354 15.0772 24.7189 17.7053 27.0374C11.0598 29.9578 6.25401 35.9867 5.41192 43.1708ZM39.9672 15.2112C38.8676 9.85295 33.8741 5.16007 26.9952 5.07879H45.5909C47.0713 5.07879 48.2727 6.21656 48.2727 7.61834V30.4734C48.2727 31.8751 49.4742 33.0126 50.9545 33.0126C52.4349 33.0126 53.6364 31.8751 53.6364 30.4734V5.07879C53.6364 2.27271 51.2361 0 48.2727 0H5.36364C2.40023 0 0 2.27271 0 5.07879V45.71C0 48.5136 2.40023 50.7892 5.36364 50.7892H32.1818C33.6622 50.7892 34.8636 49.6511 34.8636 48.2493C34.8636 46.8475 33.6622 45.71 32.1818 45.71H10.6602C10.6602 45.71 10.6441 45.5426 10.6441 45.4385C10.6441 29.9529 30.452 27.9063 35.4268 32.2843C38.3044 34.8161 42.0348 30.7804 39.1438 28.8377C38.1194 28.147 37.0252 27.5405 35.8693 27.0249C39.125 24.1884 40.9353 19.9371 39.9672 15.2112Z" fill="white"/>
</svg>
