<svg width="90" height="64" viewBox="0 0 90 64" fill="none" xmlns="http://www.w3.org/2000/svg">
<path d="M68.7305 29.2432H21.2695C19.1735 29.2475 17.1651 29.8416 15.683 30.8955C14.2009 31.9495 13.3655 33.3777 13.3594 34.8682V55.1182C13.3655 56.6087 14.2009 58.0369 15.683 59.0908C17.1651 60.1448 19.1735 60.7388 21.2695 60.7432H68.7305C70.8265 60.7388 72.8349 60.1448 74.317 59.0908C75.7991 58.0369 76.6345 56.6087 76.6406 55.1182V34.8682C76.6345 33.3777 75.7991 31.9495 74.317 30.8955C72.8349 29.8416 70.8265 29.2475 68.7305 29.2432ZM32.3654 46.1721C32.5637 46.2531 32.7377 46.3612 32.8772 46.4901C33.0168 46.619 33.1192 46.7662 33.1786 46.9233C33.2381 47.0803 33.2534 47.2442 33.2236 47.4055C33.1939 47.5668 33.1197 47.7223 33.0053 47.8632C32.8909 48.0041 32.7386 48.1275 32.557 48.2265C32.3754 48.3254 32.1682 48.3979 31.9472 48.4398C31.7261 48.4818 31.4957 48.4923 31.2689 48.4707C31.0422 48.4492 30.8236 48.3961 30.6258 48.3145L27.7553 47.1359V49.4933C27.7553 49.8214 27.572 50.136 27.2457 50.368C26.9195 50.6 26.477 50.7303 26.0156 50.7303C25.5543 50.7303 25.1118 50.6 24.7855 50.368C24.4593 50.136 24.276 49.8214 24.276 49.4933V47.1359L21.4055 48.3145C21.0061 48.4776 20.5319 48.5214 20.0871 48.4363C19.6423 48.3512 19.2631 48.1441 19.0328 47.8604C18.8024 47.5767 18.7397 47.2397 18.8584 46.9232C18.9771 46.6067 19.2675 46.3366 19.6659 46.1721L22.5372 44.9933L19.6659 43.8145C19.2675 43.65 18.9771 43.3799 18.8584 43.0634C18.7397 42.7469 18.8024 42.4098 19.0328 42.1262C19.2631 41.8425 19.6423 41.6354 20.0871 41.5502C20.5319 41.4651 21.0061 41.509 21.4055 41.6721L24.276 42.8506V40.4933C24.276 40.1652 24.4593 39.8505 24.7855 39.6185C25.1118 39.3865 25.5543 39.2562 26.0156 39.2562C26.477 39.2562 26.9195 39.3865 27.2457 39.6185C27.572 39.8505 27.7553 40.1652 27.7553 40.4933V42.8506L30.6258 41.6721C31.0252 41.509 31.4993 41.4651 31.9442 41.5502C32.389 41.6354 32.7682 41.8425 32.9985 42.1262C33.2289 42.4098 33.2916 42.7469 33.1729 43.0634C33.0542 43.3799 32.7638 43.65 32.3654 43.8145L29.4941 44.9933L32.3654 46.1721ZM51.3497 46.1721C51.5481 46.2531 51.722 46.3612 51.8616 46.4901C52.0011 46.619 52.1036 46.7662 52.163 46.9233C52.2225 47.0803 52.2377 47.2442 52.208 47.4055C52.1783 47.5668 52.1041 47.7223 51.9897 47.8632C51.8753 48.0041 51.7229 48.1275 51.5414 48.2265C51.3598 48.3254 51.1526 48.3979 50.9315 48.4398C50.7105 48.4818 50.48 48.4923 50.2533 48.4707C50.0265 48.4492 49.808 48.3961 49.6101 48.3145L46.7396 47.1359V49.4933C46.7396 49.8214 46.5564 50.136 46.2301 50.368C45.9039 50.6 45.4614 50.7303 45 50.7303C44.5386 50.7303 44.0962 50.6 43.7699 50.368C43.4437 50.136 43.2604 49.8214 43.2604 49.4933V47.1359L40.3899 48.3145C39.9905 48.4776 39.5163 48.5214 39.0715 48.4363C38.6267 48.3512 38.2475 48.1441 38.0172 47.8604C37.7868 47.5767 37.7241 47.2397 37.8428 46.9232C37.9615 46.6067 38.2519 46.3366 38.6503 46.1721L41.5216 44.9933L38.6503 43.8145C38.2519 43.65 37.9615 43.3799 37.8428 43.0634C37.7241 42.7469 37.7868 42.4098 38.0172 42.1262C38.2475 41.8425 38.6267 41.6354 39.0715 41.5502C39.5163 41.4651 39.9905 41.509 40.3899 41.6721L43.2604 42.8506V40.4933C43.2604 40.1652 43.4437 39.8505 43.7699 39.6185C44.0962 39.3865 44.5386 39.2562 45 39.2562C45.4614 39.2562 45.9039 39.3865 46.2301 39.6185C46.5564 39.8505 46.7396 40.1652 46.7396 40.4933V42.8506L49.6101 41.6721C50.0096 41.509 50.4837 41.4651 50.9285 41.5502C51.3734 41.6354 51.7525 41.8425 51.9829 42.1262C52.2132 42.4098 52.2759 42.7469 52.1572 43.0634C52.0385 43.3799 51.7481 43.65 51.3497 43.8145L48.4785 44.9933L51.3497 46.1721ZM70.3341 46.1721C70.5325 46.2531 70.7064 46.3612 70.846 46.4901C70.9855 46.619 71.0879 46.7662 71.1474 46.9233C71.2068 47.0803 71.2221 47.2442 71.1924 47.4055C71.1626 47.5668 71.0884 47.7223 70.9741 47.8632C70.8597 48.0041 70.7073 48.1275 70.5258 48.2265C70.3442 48.3254 70.137 48.3979 69.9159 48.4398C69.6949 48.4818 69.4644 48.4923 69.2377 48.4707C69.0109 48.4492 68.7924 48.3961 68.5945 48.3145L65.724 47.1359V49.4933C65.724 49.8214 65.5407 50.136 65.2145 50.368C64.8882 50.6 64.4458 50.7303 63.9844 50.7303C63.523 50.7303 63.0805 50.6 62.7543 50.368C62.4281 50.136 62.2448 49.8214 62.2448 49.4933V47.1359L59.3743 48.3145C58.9748 48.4776 58.5007 48.5214 58.0559 48.4363C57.6111 48.3512 57.2319 48.1441 57.0015 47.8604C56.7712 47.5767 56.7085 47.2397 56.8272 46.9232C56.9459 46.6067 57.2363 46.3366 57.6347 46.1721L60.5059 44.9933L57.6347 43.8145C57.2363 43.65 56.9459 43.3799 56.8272 43.0634C56.7085 42.7469 56.7712 42.4098 57.0015 42.1262C57.2319 41.8425 57.6111 41.6354 58.0559 41.5502C58.5007 41.4651 58.9748 41.509 59.3743 41.6721L62.2448 42.8506V40.4933C62.2448 40.1652 62.4281 39.8505 62.7543 39.6185C63.0805 39.3865 63.523 39.2562 63.9844 39.2562C64.4458 39.2562 64.8882 39.3865 65.2145 39.6185C65.5407 39.8505 65.724 40.1652 65.724 40.4933V42.8506L68.5945 41.6721C68.994 41.509 69.4681 41.4651 69.9129 41.5502C70.3577 41.6354 70.7369 41.8425 70.9673 42.1262C71.1976 42.4098 71.2603 42.7469 71.1416 43.0634C71.0229 43.3799 70.7325 43.65 70.3341 43.8145L67.4628 44.9933L70.3341 46.1721Z" fill="#144AD4"/>
<path d="M27.7552 17.9934C27.7552 14.7411 29.5721 11.622 32.8061 9.3222C36.0401 7.02246 40.4264 5.73047 45 5.73047C49.5736 5.73047 53.9599 7.02246 57.1939 9.3222C60.4279 11.622 62.2447 14.7411 62.2447 17.9934V26.7682H65.724V17.9934C65.724 14.0849 63.5406 10.3365 59.6541 7.57273C55.7676 4.809 50.4963 3.25635 45 3.25635C39.5037 3.25635 34.2324 4.809 30.3459 7.57273C26.4594 10.3365 24.276 14.0849 24.276 17.9934V26.7682H27.7552V17.9934Z" fill="#144AD4"/>
</svg>
