<svg width="30" height="30" viewBox="0 0 30 30" fill="none" xmlns="http://www.w3.org/2000/svg">
<g clip-path="url(#clip0_116_1140)">
<path opacity="0.4" d="M15.1509 15.9751C15.0634 15.9626 14.9509 15.9626 14.8509 15.9751C12.6509 15.9001 10.9009 14.1001 10.9009 11.8876C10.9009 9.6251 12.7259 7.7876 15.0009 7.7876C17.2634 7.7876 19.1009 9.6251 19.1009 11.8876C19.0884 14.1001 17.3509 15.9001 15.1509 15.9751Z" stroke="white" stroke-width="3.75" stroke-linecap="round" stroke-linejoin="round"/>
<path opacity="0.34" d="M23.4247 24.2252C21.1997 26.2627 18.2497 27.5002 14.9997 27.5002C11.7497 27.5002 8.79971 26.2627 6.57471 24.2252C6.69971 23.0502 7.44971 21.9002 8.78721 21.0002C12.2122 18.7252 17.8122 18.7252 21.2122 21.0002C22.5497 21.9002 23.2997 23.0502 23.4247 24.2252Z" stroke="white" stroke-width="3.75" stroke-linecap="round" stroke-linejoin="round"/>
<path d="M15 27.5C21.9035 27.5 27.5 21.9035 27.5 15C27.5 8.09644 21.9035 2.5 15 2.5C8.09644 2.5 2.5 8.09644 2.5 15C2.5 21.9035 8.09644 27.5 15 27.5Z" stroke="white" stroke-width="3.75" stroke-linecap="round" stroke-linejoin="round"/>
</g>
<defs>
<clipPath id="clip0_116_1140">
<rect width="30" height="30" fill="white"/>
</clipPath>
</defs>
</svg>
