<svg width="24" height="21" viewBox="0 0 24 21" fill="none" xmlns="http://www.w3.org/2000/svg">
<path d="M16.7416 13.4723L16.1342 14.0317C16.1342 14.0317 14.6908 15.3615 10.7508 11.7319C6.81082 8.10227 8.25426 6.77258 8.25426 6.77258L8.63668 6.4203C9.57875 5.55245 9.66756 4.15913 8.84564 3.14195L7.16434 1.06121C6.14703 -0.19775 4.18127 -0.364058 3.01526 0.710081L0.922463 2.638C0.344304 3.1706 -0.0431357 3.86103 0.00385093 4.62693C0.124051 6.58637 1.08094 10.8022 6.42047 15.7211C12.0828 20.9372 17.3957 21.1446 19.5684 20.957C20.2556 20.8976 20.8532 20.5734 21.3348 20.1297L23.2289 18.3848C24.5074 17.2071 24.1469 15.1879 22.511 14.364L19.9637 13.081C18.8896 12.54 17.581 12.6989 16.7416 13.4723Z" fill="white"/>
</svg>
