<svg width="51" height="51" viewBox="0 0 51 51" fill="none" xmlns="http://www.w3.org/2000/svg">
<path d="M48 9.25C48 30.651 30.651 48 9.25 48C8.28445 48 7.32715 47.9647 6.3793 47.8952C5.29155 47.8155 4.74765 47.7758 4.25257 47.4908C3.84252 47.2548 3.45365 46.8363 3.24813 46.41C3 45.8955 3 45.2952 3 44.095V37.0518C3 36.0423 3 35.5375 3.16613 35.105C3.31288 34.7228 3.55123 34.3825 3.86025 34.114C4.21007 33.81 4.6844 33.6375 5.63302 33.2925L13.6501 30.3773C14.7538 29.976 15.3057 29.7752 15.8292 29.8092C16.2909 29.8392 16.7352 29.997 17.1126 30.2645C17.5407 30.5677 17.8428 31.0713 18.447 32.0785L20.5 35.5C27.1247 32.4998 32.4952 27.1223 35.5 20.5L32.0785 18.447C31.0713 17.8428 30.5677 17.5407 30.2645 17.1126C29.997 16.7352 29.8392 16.2909 29.8092 15.8292C29.7752 15.3057 29.976 14.7538 30.3773 13.6501L33.2925 5.63302C33.6375 4.6844 33.81 4.21007 34.114 3.86025C34.3825 3.55123 34.7228 3.31288 35.105 3.16613C35.5375 3 36.0423 3 37.0518 3H44.095C45.2952 3 45.8955 3 46.41 3.24813C46.8363 3.45365 47.2548 3.84252 47.4908 4.25257C47.7758 4.74767 47.8155 5.29155 47.8952 6.37932C47.9647 7.32715 48 8.28445 48 9.25Z" stroke="white" stroke-width="5" stroke-linecap="round" stroke-linejoin="round"/>
</svg>
