<svg width="20" height="19" viewBox="0 0 20 19" fill="none" xmlns="http://www.w3.org/2000/svg">
<path fill-rule="evenodd" clip-rule="evenodd" d="M13.1602 7.25C13.1602 10.2531 10.6351 12.6875 7.52012 12.6875C4.40519 12.6875 1.88003 10.2531 1.88003 7.25C1.88003 4.24695 4.40519 1.8125 7.52012 1.8125C10.6351 1.8125 13.1602 4.24695 13.1602 7.25ZM12.1316 12.9774C10.8581 13.9317 9.2579 14.5 7.52012 14.5C3.36687 14.5 0 11.2541 0 7.25C0 3.24593 3.36687 0 7.52012 0C11.6734 0 15.0402 3.24593 15.0402 7.25C15.0402 8.92535 14.4508 10.468 13.4609 11.6957L19.4651 17.4842L18.1356 18.7658L12.1316 12.9774Z" fill="#05309D"/>
</svg>
