<svg width="11" height="8" viewBox="0 0 11 8" fill="none" xmlns="http://www.w3.org/2000/svg">
<path d="M11 3.00607C11.0002 2.88153 10.9609 2.75917 10.8861 2.65141C10.8112 2.54365 10.7035 2.45436 10.5738 2.39259L5.94067 0.099217C5.80715 0.034239 5.65533 0 5.50073 0C5.34614 0 5.19432 0.034239 5.06079 0.099217L0.420785 2.39259C0.292564 2.45605 0.186346 2.54624 0.11257 2.65431C0.0387943 2.76237 0 2.88458 0 3.00894C0 3.13329 0.0387943 3.25551 0.11257 3.36357C0.186346 3.47163 0.292564 3.56183 0.420785 3.62528L1.74061 4.26743V5.87852C1.7414 6.00444 1.78103 6.12806 1.85567 6.23751C1.93031 6.34696 2.03745 6.43855 2.1668 6.50347L5.08829 7.90816C5.21873 7.9684 5.36538 8 5.51448 8C5.66358 8 5.81023 7.9684 5.94067 7.90816L8.86216 6.50347C8.99151 6.43855 9.09866 6.34696 9.1733 6.23751C9.24794 6.12806 9.28756 6.00444 9.28835 5.87852V4.25023L10.1407 3.83169V5.39118H11V3.00607ZM8.43597 5.87279L5.50073 7.28322L2.59987 5.87852V4.6917L5.06079 5.91293C5.19478 5.97678 5.34642 6.01037 5.50073 6.01037C5.65505 6.01037 5.80669 5.97678 5.94067 5.91293L8.42909 4.6745L8.43597 5.87279ZM5.50073 5.29371L0.860726 3.00034L5.50073 0.701228L10.1407 2.9946L5.50073 5.29371Z" fill="#1039A1"/>
</svg>
